<svg version="1.1" xmlns="http://www.w3.org/2000/svg" xmlns:xlink="http://www.w3.org/1999/xlink" width="800" height="600"><g fill="#181919" fill-rule="nonzero" stroke="none" stroke-width="1" stroke-linecap="butt" stroke-linejoin="miter" stroke-miterlimit="10" stroke-dasharray="" stroke-dashoffset="0" font-family="none" font-weight="none" font-size="none" text-anchor="none" style="mix-blend-mode: normal"><rect x="0" y="0" width="800" height="600"/></g><g fill="none" fill-rule="nonzero" stroke="#ffffff" stroke-width="12" stroke-linecap="round" stroke-linejoin="miter" stroke-miterlimit="10" stroke-dasharray="" stroke-dashoffset="0" font-family="none" font-weight="none" font-size="none" text-anchor="none" style="mix-blend-mode: normal"><g id="Snowflake"><g><line x1="400" y1="300" x2="400" y2="500"/><polyline points="354.61656,362.69172 400,317.30828 445.38344,362.69172"/><polyline points="363.20455,398.39773 400,361.60227 436.79545,398.39773"/><polyline points="379.73316,430.13342 400,409.86658 420.26684,430.13342"/><polyline points="368.28156,475.85922 400,444.14078 431.71844,475.85922"/></g><g><line x1="400" y1="300" x2="226.79492" y2="400"/><polyline points="323.01566,292.04265 385.01059,308.65414 368.3991,370.64907"/><polyline points="296.38734,317.33307 346.65087,330.80114 333.1828,381.06466"/><polyline points="277.16773,347.51511 304.85275,354.93329 297.43457,382.61831"/><polyline points="231.84223,360.46063 275.17042,372.07039 263.56067,415.39859"/></g><g><line x1="400" y1="300" x2="226.79492" y2="200"/><polyline points="368.3991,229.35093 385.01059,291.34586 323.01566,307.95735"/><polyline points="333.1828,218.93534 346.65087,269.19886 296.38734,282.66693"/><polyline points="297.43457,217.38169 304.85275,245.06671 277.16773,252.48489"/><polyline points="263.56067,184.60141 275.17042,227.92961 231.84223,239.53937"/></g><g><line x1="400" y1="300" x2="400" y2="100"/><polyline points="445.38344,237.30828 400,282.69172 354.61656,237.30828"/><polyline points="436.79545,201.60227 400,238.39773 363.20455,201.60227"/><polyline points="420.26684,169.86658 400,190.13342 379.73316,169.86658"/><polyline points="431.71844,124.14078 400,155.85922 368.28156,124.14078"/></g><g><line x1="400" y1="300" x2="573.20508" y2="200"/><polyline points="476.98434,307.95735 414.98941,291.34586 431.6009,229.35093"/><polyline points="503.61266,282.66693 453.34913,269.19886 466.8172,218.93534"/><polyline points="522.83227,252.48489 495.14725,245.06671 502.56543,217.38169"/><polyline points="568.15777,239.53937 524.82958,227.92961 536.43933,184.60141"/></g><g><line x1="400" y1="300" x2="573.20508" y2="400"/><polyline points="431.6009,370.64907 414.98941,308.65414 476.98434,292.04265"/><polyline points="466.8172,381.06466 453.34913,330.80114 503.61266,317.33307"/><polyline points="502.56543,382.61831 495.14725,354.93329 522.83227,347.51511"/><polyline points="536.43933,415.39859 524.82958,372.07039 568.15777,360.46063"/></g></g></g><g fill="none" fill-rule="nonzero" stroke="none" stroke-width="1" stroke-linecap="butt" stroke-linejoin="miter" stroke-miterlimit="10" stroke-dasharray="" stroke-dashoffset="0" font-family="sans-serif" font-weight="normal" font-size="12" text-anchor="start" style="mix-blend-mode: normal"/></svg>